<svg width="20" height="20" viewBox="0 0 20 20" fill="none" xmlns="http://www.w3.org/2000/svg">
<path fill-rule="evenodd" clip-rule="evenodd" d="M0.833008 4.16646C0.833008 2.32551 2.32539 0.83313 4.16634 0.83313H15.833C17.674 0.83313 19.1663 2.32551 19.1663 4.16646V15.8331C19.1663 17.6741 17.674 19.1665 15.833 19.1665H4.16634C2.32539 19.1665 0.833008 17.6741 0.833008 15.8331V4.16646ZM4.16634 2.4998H15.833C16.7535 2.4998 17.4997 3.24599 17.4997 4.16646V15.8331C17.4997 16.7536 16.7535 17.4998 15.833 17.4998H4.16634C3.24587 17.4998 2.49967 16.7536 2.49967 15.8331V4.16646C2.49967 3.24599 3.24587 2.4998 4.16634 2.4998Z" fill="#7F8DEF"/>
<path d="M8.44245 14.3348C8.27973 14.4975 8.01591 14.4975 7.85319 14.3348L3.81178 10.2934C3.64947 10.1311 3.649 9.86806 3.81074 9.70517L4.52912 8.98169C4.69167 8.81799 4.95629 8.81753 5.11942 8.98065L7.85319 11.7144C8.01591 11.8771 8.27973 11.8771 8.44245 11.7144L14.8799 5.27695C15.0431 5.11382 15.3077 5.11429 15.4702 5.27799L16.1886 6.00147C16.3503 6.16435 16.3499 6.42737 16.1876 6.58968L8.44245 14.3348ZM16.4812 1.66646H3.51819C2.49041 1.66646 1.66634 2.49054 1.66634 3.51831V16.4813C1.66634 16.9724 1.86145 17.4434 2.20874 17.7907C2.55603 18.138 3.02705 18.3331 3.51819 18.3331H16.4812C16.9723 18.3331 17.4433 18.138 17.7906 17.7907C18.1379 17.4434 18.333 16.9724 18.333 16.4813V3.51831C18.333 2.49054 17.4997 1.66646 16.4812 1.66646Z" fill="#7F8DEF"/>
</svg>
